<svg xmlns="http://www.w3.org/2000/svg" viewBox="0 0 400 440" role="img" aria-labelledby="title desc">
<!-- Placeholder autoral: substituir por fotografia real do produto antes de venda comercial. -->
<title id="title">Ração natural de salmão Pata &amp; Prosa</title><desc id="desc">Embalagem premium verde floresta com rótulo creme e detalhes cor de salmão.</desc>
<defs><linearGradient id="bag" x1="0" y1="0" x2="1" y2="1"><stop stop-color="#315C46"/><stop offset=".6" stop-color="#173D2C"/><stop offset="1" stop-color="#0F3021"/></linearGradient><linearGradient id="cream" x1="0" y1="0" x2="1" y2="1"><stop stop-color="#FFF9E9"/><stop offset="1" stop-color="#EADFC7"/></linearGradient><linearGradient id="fold"><stop stop-color="#FFF" stop-opacity=".16"/><stop offset=".5" stop-color="#FFF" stop-opacity="0"/><stop offset="1" stop-color="#000" stop-opacity=".18"/></linearGradient><filter id="shadow" x="-30%" y="-20%" width="160%" height="160%"><feDropShadow dx="0" dy="16" stdDeviation="12" flood-color="#233E2E" flood-opacity=".18"/></filter></defs>
<ellipse cx="200" cy="392" rx="106" ry="13" fill="#24422E" opacity=".08"/>
<g filter="url(#shadow)"><path d="M99 67Q200 57 301 67L294 102 312 356Q315 383 286 390H113Q85 384 88 356L106 103Z" fill="url(#bag)"/><path d="M99 67Q200 57 301 67L294 101H106Z" fill="#274D39"/><path d="M111 74Q200 68 289 74M110 82Q200 76 290 82" fill="none" stroke="#72866B" stroke-opacity=".6" stroke-width="2"/><path d="M106 102H294L300 191Q200 209 100 191Z" fill="url(#cream)"/><path d="M111 105L94 357Q94 379 113 383M289 106L306 357Q309 374 289 382" fill="none" stroke="#FFF" stroke-opacity=".12" stroke-width="3"/>
<g fill="#244A35"><circle cx="191" cy="124" r="3.8"/><circle cx="201" cy="120" r="3.8"/><circle cx="211" cy="124" r="3.8"/><path d="M191 136Q191 129 201 127Q211 129 211 136Q211 141 201 137Q191 141 191 136"/></g>
<text x="200" y="162" text-anchor="middle" fill="#204330" font-family="Arial,sans-serif" font-size="22" font-weight="700" letter-spacing="1">PATA &amp; PROSA</text><text x="200" y="181" text-anchor="middle" fill="#73806A" font-family="Arial,sans-serif" font-size="8" letter-spacing="3">NUTRIÇÃO DE VERDADE</text>
<text x="200" y="236" text-anchor="middle" fill="#F6EBD3" font-family="Arial,sans-serif" font-size="12" letter-spacing="3">RECEITA NATURAL</text><text x="200" y="270" text-anchor="middle" fill="#F6EBD3" font-family="Arial,sans-serif" font-size="33" font-weight="700">Salmão</text><path d="M150 310Q181 283 223 307L249 291V328L223 312Q182 338 150 310Z" fill="#E99A76"/><path d="M178 302Q173 310 180 319M190 299Q185 310 192 322" fill="none" stroke="#173D2C" stroke-width="2" stroke-linecap="round"/><circle cx="162" cy="310" r="2.2" fill="#173D2C"/>
<path d="M125 349H275" stroke="#6C8268" stroke-opacity=".6"/><text x="125" y="367" fill="#F5EAD4" font-family="Arial,sans-serif" font-size="9" letter-spacing="1.4">CÃES ADULTOS</text><text x="273" y="369" text-anchor="end" fill="#F5EAD4" font-family="Arial,sans-serif" font-size="15" font-weight="700">3 kg</text><path d="M99 68Q112 190 99 354L113 387H286L302 354Q288 190 301 68" fill="url(#fold)" opacity=".42"/>
</g></svg>
