<svg xmlns="http://www.w3.org/2000/svg" viewBox="0 0 400 440" role="img" aria-labelledby="title desc">
<!-- Placeholder autoral: substituir por fotografia real do produto antes de venda comercial. -->
<title id="title">Ração natural de frango Pata &amp; Prosa</title><desc id="desc">Pacote creme de ração com faixa laranja e detalhes verde floresta.</desc>
<defs><linearGradient id="bag" x1="0" y1="0" x2="1" y2="1"><stop stop-color="#FFF9E9"/><stop offset=".6" stop-color="#EFE2CA"/><stop offset="1" stop-color="#D8C9A9"/></linearGradient><linearGradient id="orange" x1="0" y1="0" x2="1" y2="1"><stop stop-color="#E58D4B"/><stop offset="1" stop-color="#C86632"/></linearGradient><filter id="shadow" x="-30%" y="-20%" width="160%" height="160%"><feDropShadow dx="0" dy="16" stdDeviation="12" flood-color="#6D5634" flood-opacity=".18"/></filter></defs>
<ellipse cx="200" cy="392" rx="106" ry="13" fill="#6D5634" opacity=".08"/>
<g filter="url(#shadow)"><path d="M99 67Q200 57 301 67L294 102 312 356Q315 383 286 390H113Q85 384 88 356L106 103Z" fill="url(#bag)"/><path d="M99 67Q200 57 301 67L294 101H106Z" fill="#E6D8BD"/><path d="M111 74Q200 68 289 74M110 82Q200 76 290 82" fill="none" stroke="#BBAE8E" stroke-opacity=".75" stroke-width="2"/><path d="M104 193Q200 180 297 193L308 342Q200 355 92 342Z" fill="url(#orange)"/>
<g fill="#264B36"><circle cx="190" cy="123" r="3.8"/><circle cx="200" cy="119" r="3.8"/><circle cx="210" cy="123" r="3.8"/><path d="M190 135Q190 128 200 126Q210 128 210 135Q210 140 200 136Q190 140 190 135"/></g><text x="200" y="160" text-anchor="middle" fill="#244A35" font-family="Arial,sans-serif" font-size="22" font-weight="700" letter-spacing="1">PATA &amp; PROSA</text><text x="200" y="179" text-anchor="middle" fill="#75806A" font-family="Arial,sans-serif" font-size="8" letter-spacing="3">NUTRIÇÃO DE VERDADE</text>
<text x="200" y="223" text-anchor="middle" fill="#FFF2D9" font-family="Arial,sans-serif" font-size="12" letter-spacing="3">RECEITA NATURAL</text><text x="200" y="256" text-anchor="middle" fill="#FFF7E9" font-family="Arial,sans-serif" font-size="33" font-weight="700">Frango</text><g transform="translate(159 278)"><path d="M0 17Q4-1 25 0Q44 0 53 19L66 27 58 42 43 31Q19 48 4 35Q-3 28 0 17" fill="#F9E7BD"/><path d="M56 35L74 44Q79 39 84 44Q90 53 82 56Q82 63 74 60Q69 58 72 51L55 43" fill="#FFFAED"/><path d="M10 18Q17 7 27 9" fill="none" stroke="#CE8449" stroke-width="2.5" stroke-linecap="round"/></g>
<text x="124" y="368" fill="#34573D" font-family="Arial,sans-serif" font-size="9" letter-spacing="1.2">CÃES ADULTOS</text><text x="274" y="370" text-anchor="end" fill="#34573D" font-family="Arial,sans-serif" font-size="15" font-weight="700">3 kg</text><path d="M110 108L96 356Q94 378 112 383M290 108L305 356Q308 377 289 383" fill="none" stroke="#FFF" stroke-opacity=".4" stroke-width="3"/>
</g></svg>
